<svg width="20" height="20" viewBox="0 0 20 20" fill="none" xmlns="http://www.w3.org/2000/svg">
<path fill-rule="evenodd" clip-rule="evenodd" d="M3.00005 5.00002C3.00005 4.44772 3 4 3 4H17C17 4 17 4.44772 17 5.00002C17 5.55231 17 6.00003 17 6.00003H3C3 6.00003 3.00005 5.55231 3.00005 5.00002Z" fill="#A1A1A1"/>
<path fill-rule="evenodd" clip-rule="evenodd" d="M3.00005 10.0001C3.00005 9.44781 3.00005 9.00009 3.00005 9.00009H16.9999C16.9999 9.00009 17 9.44781 17 10.0001C17 10.5524 16.9999 11.0001 16.9999 11.0001H3C3 11.0001 3.00005 10.5524 3.00005 10.0001Z" fill="#A1A1A1"/>
<path fill-rule="evenodd" clip-rule="evenodd" d="M3.00005 15.0002C3.00005 14.4479 3 14.0002 3 14.0002H16.9999C16.9999 14.0002 17 14.4479 17 15.0002C17 15.5525 16.9999 16.0002 16.9999 16.0002H3C3 16.0002 3.00005 15.5525 3.00005 15.0002Z" fill="#A1A1A1"/>
</svg>
