<svg width="34" height="34" viewBox="0 0 34 34" fill="none" xmlns="http://www.w3.org/2000/svg">
<g opacity="0.1">
<path opacity="0.1" d="M32.9973 32.2437V32.9988H32.2422" stroke="white" stroke-miterlimit="10"/>
<path opacity="0.1" d="M30.7929 32.9988H2.48047" stroke="white" stroke-miterlimit="10" stroke-dasharray="5.77 5.77"/>
<path opacity="0.1" d="M1.75513 32.9988H1V32.2437" stroke="white" stroke-miterlimit="10"/>
<path opacity="0.1" d="M1 30.7912V2.48132" stroke="white" stroke-miterlimit="10" stroke-dasharray="5.77 5.77"/>
<path opacity="0.1" d="M1 1.75641V1.00128H1.75513" stroke="white" stroke-miterlimit="10"/>
<path opacity="0.1" d="M3.20703 1.00128H31.5169" stroke="white" stroke-miterlimit="10" stroke-dasharray="5.77 5.77"/>
<path opacity="0.1" d="M32.2422 1.00128H32.9973V1.75641" stroke="white" stroke-miterlimit="10"/>
<path opacity="0.1" d="M32.9971 3.2063V31.5187" stroke="white" stroke-miterlimit="10" stroke-dasharray="5.77 5.77"/>
</g>
<path d="M13.0818 15.1631L9.93754 13.3351L6.78906 15.1631V18.8108L9.93754 20.6347L13.0818 18.8108V15.1631ZM12.4048 18.4185L9.93754 19.8459L7.47027 18.4185V15.5554L9.93754 14.1239L12.4048 15.5554V18.4185Z" fill="white"/>
<path d="M19.878 15.159L16.8555 13.3351L13.8369 15.159V18.8067L16.8555 20.6347L19.878 18.8067V15.159Z" fill="white"/>
<path d="M23.7781 13.3351L20.6338 15.1631V18.8108L23.7781 20.6347L26.9266 18.8108V15.1631L23.7781 13.3351ZM26.2454 18.4185L23.7781 19.8459L21.3108 18.4185V15.5554L23.7781 14.1239L26.2454 15.5554V18.4185Z" fill="white"/>
<path d="M10.3135 21.2042V24.8519L13.4661 26.6758L16.6062 24.8519V21.2042L13.4661 19.3762L10.3135 21.2042ZM15.9176 24.4721L13.4661 25.887L10.9772 24.4721V21.5965L13.4661 20.165L15.9259 21.5965L15.9176 24.4721Z" fill="white"/>
<path d="M17.1094 21.2042V24.8519L20.2537 26.6758L23.4021 24.8519V21.2042L20.2537 19.3762L17.1094 21.2042ZM22.7209 24.4721L20.2537 25.8995L17.7906 24.4721V21.5965L20.2537 20.165L22.7209 21.5965V24.4721Z" fill="white"/>
<path d="M16.6062 12.7698V9.10958L13.4703 7.29407L10.3135 9.10958V12.7573L13.4703 14.5937L16.6062 12.7698ZM10.9781 9.52694L13.4703 8.08288L15.9251 9.52694V12.39L13.4703 13.8049L10.9781 12.3775V9.52694Z" fill="white"/>
<path d="M23.4021 12.7823V9.12209L20.2537 7.29407L17.1094 9.12209V12.7698L20.2537 14.5937L23.4021 12.7823ZM17.7906 9.53945L20.2537 8.10792L22.7209 9.53945V12.4025L20.2537 13.8299L17.7906 12.4025V9.53945Z" fill="white"/>
</svg>
