<svg width="20" height="20" viewBox="0 0 20 20" fill="none" xmlns="http://www.w3.org/2000/svg">
<path fill-rule="evenodd" clip-rule="evenodd" d="M8.73314 2.99988C11.8995 2.99988 14.4663 5.56674 14.4663 8.73312C14.4663 10.1189 13.9747 11.3898 13.1563 12.381L16.7611 15.9866L15.7476 17.0001L12.112 13.3654C11.1645 14.0577 9.99652 14.4664 8.73314 14.4664C5.56682 14.4664 3 11.8995 3 8.73312C3 5.56674 5.56682 2.99988 8.73314 2.99988ZM8.73314 4.43319C6.3584 4.43319 4.43329 6.35833 4.43329 8.73312C4.43329 11.1079 6.3584 13.0331 8.73314 13.0331C9.57439 13.0331 10.3762 12.7922 11.0636 12.3476L11.2664 12.2081L11.7058 11.8874L12.0511 11.4684C12.6342 10.7622 12.9775 9.89303 13.0268 8.96602L13.033 8.73312C13.033 6.35833 11.1079 4.43319 8.73314 4.43319Z" fill="#A1A1A1"/>
</svg>
